# xmcd CD database file
# Copyright (C) 1993-1998 Ti Kan
#
# Track frame offsets:
#	170
#	15355
#	22762
#	33620
#	44787
#	53045
#	66785
#	76562
#	88035
#	104012
#	112755
#
# Disc length: 1632 seconds
#
# Revision: 0
# Processed by: cddbd v1.4b41PL1 Copyright (c) Steve Scherf et al.
# Submitted via: CDmax 1.5
#
DISCID=7c065e0b
DTITLE=Gene Clark - Echoes
DYEAR=1900
DGENRE=
TTITLE0=Echoes
TTITLE1=Think I'm Gonna Feel Better
TTITLE2=Tried So Hard
TTITLE3=Is Yours Is Mine
TTITLE4=Keep On Pushin'
TTITLE5=I Found You
TTITLE6=So Say You Lost Your Baby
TTITLE7=Elevator Operator
TTITLE8=The Same One
TTITLE9=Couldn't Believe Her
TTITLE10=Needing  Someone
EXTD=
EXTT0=
EXTT1=
EXTT2=
EXTT3=
EXTT4=
EXTT5=
EXTT6=
EXTT7=
EXTT8=
EXTT9=
EXTT10=
PLAYORDER=
